<svg xmlns="http://www.w3.org/2000/svg" width="430" height="430" style="width:100%;height:100%;transform:translate3d(0,0,0);content-visibility:visible" viewBox="0 0 430 430"><defs><path id="b" style="display:none"/><path id="c" fill="red" d="M75 102.863v-205.726H-75v205.726z" style="display:block" transform="translate(215 267.137)"/><path id="e" style="display:none"/><path id="a" style="display:none"/><path id="d" fill="red" d="M246.385 83.602c0 17.235-13.971 31.207-31.206 31.207s-31.206-13.972-31.206-31.207c0-12.34 16.121-38.399 29.394-55.807 0 0 2.653-1.539 4.06.262 7.16 9.166 28.958 38.469 28.958 55.545" style="display:block"/><path id="f" style="display:none"/><mask id="p" mask-type="alpha"><use xmlns:ns1="http://www.w3.org/1999/xlink" ns1:href="#a"/></mask><mask id="o" mask-type="alpha"><use xmlns:ns2="http://www.w3.org/1999/xlink" ns2:href="#b"/></mask><mask id="m" mask-type="alpha"><use xmlns:ns3="http://www.w3.org/1999/xlink" ns3:href="#c"/></mask><mask id="l" mask-type="alpha"><use xmlns:ns4="http://www.w3.org/1999/xlink" ns4:href="#d"/></mask><mask id="j" mask-type="alpha"><use xmlns:ns5="http://www.w3.org/1999/xlink" ns5:href="#e"/></mask><mask id="i" mask-type="alpha"><use xmlns:ns6="http://www.w3.org/1999/xlink" ns6:href="#f"/></mask><clipPath id="g"><path d="M0 0h430v430H0z"/></clipPath><clipPath id="n"><path d="M0 0h430v430H0z"/></clipPath><clipPath id="k"><path d="M0 0h430v430H0z"/></clipPath><clipPath id="h"><path d="M0 0h430v430H0z"/></clipPath></defs><g clip-path="url(#g)"><g clip-path="url(#h)" style="display:none"><g style="display:none"><path class="tertiary"/><path class="tertiary" style="mix-blend-mode:multiply"/></g><g mask="url(#i)" style="display:none"><path class="tertiary"/></g><path fill="none" class="primary" style="display:none"/><g style="display:none"><path fill="none" class="primary"/><path class="secondary"/><path class="secondary" style="mix-blend-mode:multiply"/><path class="quaternary"/><path class="quaternary" style="mix-blend-mode:multiply"/></g><g mask="url(#j)" style="mix-blend-mode:multiply;display:none"><path class="secondary"/><path fill="none" class="secondary"/></g><path class="secondary" style="display:none"/><path fill="none" class="primary" style="display:none"/><path fill="none" class="primary" style="display:none"/></g><g clip-path="url(#k)" style="display:block"><g fill="#F24C00" style="display:block"><path d="M246.385 83.602c0 17.235-13.971 31.207-31.206 31.207s-31.206-13.972-31.206-31.207c0-12.34 16.121-38.399 29.394-55.807 0 0 2.653-1.539 4.06.262 7.16 9.166 28.958 38.469 28.958 55.545" class="tertiary"/><path fill-opacity=".5" d="M-16.169 10.337c0 8.93 7.239 16.169 16.169 16.169s16.169-7.239 16.169-16.169c0-6.394-8.353-19.896-15.23-28.916 0 0-1.375-.797-2.104.136-3.71 4.749-15.004 19.932-15.004 28.78" class="tertiary" style="mix-blend-mode:multiply" transform="matrix(-1.93 0 0 1.93 215.179 63.652)"/></g><g mask="url(#l)" style="display:block"><path fill="#F24C00" d="M261.385 83.602c0 17.235-13.971 31.207-31.206 31.207s-31.206-13.972-31.206-31.207c0-12.34 17.933-40.96 31.206-58.369 0 0 31.206 37.938 31.206 58.37" class="tertiary"/></g><path fill="none" stroke="#121331" stroke-linecap="round" stroke-linejoin="round" stroke-width="3.7" d="M-16.169 10.337c0 8.93 7.239 16.169 16.169 16.169s16.169-7.239 16.169-16.169c0-6.394-9.292-21.223-16.169-30.243 0 0-16.169 19.657-16.169 30.243" class="primary" style="display:block" transform="matrix(-1.93 0 0 1.93 215.179 63.652)"/><g style="display:block"><path fill="none" stroke="#121331" stroke-linecap="round" stroke-linejoin="round" stroke-width="7" d="M215 150V90" class="primary"/><g fill="#EBE6EF"><path d="M290 370V164.274H140V370z" class="secondary"/><path fill-opacity=".4" d="M75 102.863v-205.726H-75v205.726z" class="secondary" style="mix-blend-mode:multiply" transform="translate(215 267.137)"/></g><path fill="#3A3347" d="M95 358a3 3 0 0 1 3-3h234a3 3 0 0 1 3 3v17c0 11.046-8.954 20-20 20H115c-11.046 0-20-8.954-20-20z" class="quaternary"/><g opacity=".5" style="mix-blend-mode:multiply"><path fill="#3A3347" d="M125 355v15c0 5.523 4.477 10 10 10h199.37c-2.22 8.626-10.051 15-19.37 15H115c-11.046 0-20-8.954-20-20v-17a3 3 0 0 1 3-3z" class="quaternary" opacity="1"/></g></g><g mask="url(#m)" opacity=".4" style="mix-blend-mode:multiply;display:block"><path fill="#EBE6EF" d="M160 357.75h-20V152.024l20.003-.087z" class="secondary" opacity="1"/><path fill="none" stroke="#EBE6EF" stroke-linecap="round" stroke-linejoin="round" stroke-width="39" d="M127.5 222.75v-42.5c0-22.091 17.909-40 40-40h95c22.091 0 40 17.909 40 40v29.5c0 9.665-7.835 17.5-17.5 17.5s-17.5-7.835-17.5-17.5v-7c0-9.665-7.835-17.5-17.5-17.5s-17.5 7.835-17.5 17.5v70c0 9.665-7.835 17.5-17.5 17.5s-17.5-7.835-17.5-17.5v-80c0-9.665-7.835-17.5-17.5-17.5s-17.5 7.835-17.5 17.5v30c0 9.665-7.835 17.5-17.5 17.5s-17.5-7.835-17.5-17.5" class="secondary" opacity="1"/></g><path fill="#EBE6EF" d="M-87.5-25v-42.5c0-22.091 17.909-40 40-40h95c22.091 0 40 17.909 40 40V-38c0 9.665-7.835 17.5-17.5 17.5S52.5-28.335 52.5-38v-7c0-9.665-7.835-17.5-17.5-17.5S17.5-54.665 17.5-45v70c0 9.665-7.835 17.5-17.5 17.5S-17.5 34.665-17.5 25v-80c0-9.665-7.835-17.5-17.5-17.5S-52.5-64.665-52.5-55v30c0 9.665-7.835 17.5-17.5 17.5S-87.5-15.335-87.5-25" class="secondary" style="display:block" transform="translate(215 247.5)"/><path fill="none" stroke="#121331" stroke-linecap="round" stroke-linejoin="round" stroke-width="7" d="M-75-8.225V107.5m150 0V-21.225M-87.5-25v-42.5c0-22.091 17.909-40 40-40h95c22.091 0 40 17.909 40 40V-38c0 9.665-7.835 17.5-17.5 17.5S52.5-28.335 52.5-38v-7c0-9.665-7.835-17.5-17.5-17.5S17.5-54.665 17.5-45v70c0 9.665-7.835 17.5-17.5 17.5S-17.5 34.665-17.5 25v-80c0-9.665-7.835-17.5-17.5-17.5S-52.5-64.665-52.5-55v30c0 9.665-7.835 17.5-17.5 17.5S-87.5-15.335-87.5-25" class="primary" style="display:block" transform="translate(215 247.5)"/><path fill="none" stroke="#121331" stroke-linecap="round" stroke-linejoin="round" stroke-width="7" d="M120-20h-240V0c0 11.046 8.954 20 20 20h200c11.046 0 20-8.954 20-20z" class="primary" style="display:block" transform="translate(215 375)"/></g><g clip-path="url(#n)" style="display:none"><g style="display:none"><path class="secondary"/><path class="secondary" style="mix-blend-mode:multiply"/></g><g mask="url(#o)" style="mix-blend-mode:multiply;display:none"><path class="secondary"/><path fill="none" class="secondary"/></g><g style="display:none"><path class="tertiary"/><path class="tertiary" style="mix-blend-mode:multiply"/></g><g mask="url(#p)" style="display:none"><path class="tertiary"/></g><path fill="none" class="primary" style="display:none"/><path class="secondary" style="display:none"/><path fill="none" class="primary" style="display:none"/><path fill="none" class="primary" style="display:none"/><g style="display:none"><path class="quaternary"/><path class="quaternary" style="mix-blend-mode:multiply"/></g><path fill="none" class="primary" style="display:none"/></g></g></svg>